<mxfile host="Electron" modified="2023-11-05T11:54:55.168Z" agent="Mozilla/5.0 (Windows NT 10.0; Win64; x64) AppleWebKit/537.36 (KHTML, like Gecko) draw.io/22.0.3 Chrome/114.0.5735.289 Electron/25.8.4 Safari/537.36" etag="hIV2l3Id9RQiiXrdiYya" version="22.0.3" type="device">
  <diagram name="Страница — 1" id="8SmG_IlblO_kicYChQIh">
    <mxGraphModel dx="1434" dy="836" grid="1" gridSize="10" guides="1" tooltips="1" connect="1" arrows="1" fold="1" page="1" pageScale="1" pageWidth="1169" pageHeight="827" math="0" shadow="0">
      <root>
        <mxCell id="0" />
        <mxCell id="1" parent="0" />
        <mxCell id="it-wz2Nslt1yuYSjGLY3-20" value="" style="group;fontFamily=Tahoma;" parent="1" vertex="1" connectable="0">
          <mxGeometry x="40" y="90" width="200" height="230" as="geometry" />
        </mxCell>
        <mxCell id="it-wz2Nslt1yuYSjGLY3-3" value="" style="rounded=0;whiteSpace=wrap;html=1;fontFamily=Tahoma;" parent="it-wz2Nslt1yuYSjGLY3-20" vertex="1">
          <mxGeometry y="30" width="200" height="180" as="geometry" />
        </mxCell>
        <mxCell id="it-wz2Nslt1yuYSjGLY3-1" value="Клиент пользователя" style="rounded=0;whiteSpace=wrap;html=1;fontFamily=Tahoma;fillColor=#ffe6cc;strokeColor=#d79b00;" parent="it-wz2Nslt1yuYSjGLY3-20" vertex="1">
          <mxGeometry x="40" y="50" width="120" height="60" as="geometry" />
        </mxCell>
        <mxCell id="it-wz2Nslt1yuYSjGLY3-2" value="Клиент администратора" style="rounded=0;whiteSpace=wrap;html=1;fontFamily=Tahoma;fillColor=#e1d5e7;strokeColor=#9673a6;" parent="it-wz2Nslt1yuYSjGLY3-20" vertex="1">
          <mxGeometry x="40" y="130" width="120" height="60" as="geometry" />
        </mxCell>
        <mxCell id="it-wz2Nslt1yuYSjGLY3-4" value="&lt;b&gt;&lt;font style=&quot;font-size: 16px;&quot;&gt;Телеграм бот&lt;/font&gt;&lt;/b&gt;" style="text;html=1;strokeColor=none;fillColor=none;align=center;verticalAlign=middle;whiteSpace=wrap;rounded=0;fontFamily=Tahoma;" parent="it-wz2Nslt1yuYSjGLY3-20" vertex="1">
          <mxGeometry width="200" height="30" as="geometry" />
        </mxCell>
        <mxCell id="it-wz2Nslt1yuYSjGLY3-21" value="" style="group;fontFamily=Tahoma;" parent="1" vertex="1" connectable="0">
          <mxGeometry x="280" y="50" width="200" height="350" as="geometry" />
        </mxCell>
        <mxCell id="it-wz2Nslt1yuYSjGLY3-22" value="" style="rounded=0;whiteSpace=wrap;html=1;fontFamily=Tahoma;" parent="it-wz2Nslt1yuYSjGLY3-21" vertex="1">
          <mxGeometry y="30" width="200" height="260" as="geometry" />
        </mxCell>
        <mxCell id="it-wz2Nslt1yuYSjGLY3-31" style="edgeStyle=orthogonalEdgeStyle;rounded=0;orthogonalLoop=1;jettySize=auto;html=1;entryX=1;entryY=0.5;entryDx=0;entryDy=0;fontFamily=Tahoma;" parent="it-wz2Nslt1yuYSjGLY3-21" source="it-wz2Nslt1yuYSjGLY3-23" target="it-wz2Nslt1yuYSjGLY3-24" edge="1">
          <mxGeometry relative="1" as="geometry">
            <Array as="points">
              <mxPoint x="180" y="80" />
              <mxPoint x="180" y="160" />
            </Array>
          </mxGeometry>
        </mxCell>
        <mxCell id="it-wz2Nslt1yuYSjGLY3-23" value="ядро приложения (core)" style="rounded=1;whiteSpace=wrap;html=1;fontFamily=Tahoma;fillColor=#d5e8d4;strokeColor=#82b366;" parent="it-wz2Nslt1yuYSjGLY3-21" vertex="1">
          <mxGeometry x="40" y="50" width="120" height="60" as="geometry" />
        </mxCell>
        <mxCell id="it-wz2Nslt1yuYSjGLY3-32" style="edgeStyle=orthogonalEdgeStyle;rounded=0;orthogonalLoop=1;jettySize=auto;html=1;entryX=0;entryY=0.5;entryDx=0;entryDy=0;fontFamily=Tahoma;" parent="it-wz2Nslt1yuYSjGLY3-21" source="it-wz2Nslt1yuYSjGLY3-24" target="it-wz2Nslt1yuYSjGLY3-26" edge="1">
          <mxGeometry relative="1" as="geometry">
            <Array as="points">
              <mxPoint x="20" y="160" />
              <mxPoint x="20" y="240" />
            </Array>
          </mxGeometry>
        </mxCell>
        <mxCell id="it-wz2Nslt1yuYSjGLY3-33" style="edgeStyle=orthogonalEdgeStyle;rounded=0;orthogonalLoop=1;jettySize=auto;html=1;entryX=0;entryY=0.5;entryDx=0;entryDy=0;fontFamily=Tahoma;" parent="it-wz2Nslt1yuYSjGLY3-21" source="it-wz2Nslt1yuYSjGLY3-24" target="it-wz2Nslt1yuYSjGLY3-23" edge="1">
          <mxGeometry relative="1" as="geometry">
            <Array as="points">
              <mxPoint x="20" y="160" />
              <mxPoint x="20" y="80" />
            </Array>
          </mxGeometry>
        </mxCell>
        <mxCell id="it-wz2Nslt1yuYSjGLY3-24" value="handlers" style="rounded=0;whiteSpace=wrap;html=1;fontFamily=Tahoma;shape=parallelogram;perimeter=parallelogramPerimeter;fixedSize=1;fillColor=#fff2cc;strokeColor=#d6b656;" parent="it-wz2Nslt1yuYSjGLY3-21" vertex="1">
          <mxGeometry x="40" y="130" width="120" height="60" as="geometry" />
        </mxCell>
        <mxCell id="it-wz2Nslt1yuYSjGLY3-25" value="&lt;b&gt;&lt;font style=&quot;font-size: 16px;&quot;&gt;Бэкенд&lt;/font&gt;&lt;/b&gt;" style="text;html=1;strokeColor=none;fillColor=none;align=center;verticalAlign=middle;whiteSpace=wrap;rounded=0;fontFamily=Tahoma;" parent="it-wz2Nslt1yuYSjGLY3-21" vertex="1">
          <mxGeometry width="200" height="30" as="geometry" />
        </mxCell>
        <mxCell id="it-wz2Nslt1yuYSjGLY3-26" value="templates" style="rounded=0;whiteSpace=wrap;html=1;fontFamily=Tahoma;fillColor=#f5f5f5;fontColor=#333333;strokeColor=#666666;shape=trapezoid;perimeter=trapezoidPerimeter;fixedSize=1;" parent="it-wz2Nslt1yuYSjGLY3-21" vertex="1">
          <mxGeometry x="40" y="210" width="120" height="60" as="geometry" />
        </mxCell>
        <mxCell id="it-wz2Nslt1yuYSjGLY3-34" style="edgeStyle=orthogonalEdgeStyle;rounded=0;orthogonalLoop=1;jettySize=auto;html=1;entryX=0;entryY=0.5;entryDx=0;entryDy=0;fontFamily=Tahoma;" parent="1" source="it-wz2Nslt1yuYSjGLY3-3" target="it-wz2Nslt1yuYSjGLY3-22" edge="1">
          <mxGeometry relative="1" as="geometry" />
        </mxCell>
        <mxCell id="it-wz2Nslt1yuYSjGLY3-36" value="" style="group;fontFamily=Tahoma;" parent="1" vertex="1" connectable="0">
          <mxGeometry x="520" y="130" width="200" height="350" as="geometry" />
        </mxCell>
        <mxCell id="it-wz2Nslt1yuYSjGLY3-37" value="" style="rounded=0;whiteSpace=wrap;html=1;fontFamily=Tahoma;" parent="it-wz2Nslt1yuYSjGLY3-36" vertex="1">
          <mxGeometry y="30" width="200" height="100" as="geometry" />
        </mxCell>
        <mxCell id="it-wz2Nslt1yuYSjGLY3-39" value="база данных MySQL" style="rounded=0;whiteSpace=wrap;html=1;fontFamily=Tahoma;" parent="it-wz2Nslt1yuYSjGLY3-36" vertex="1">
          <mxGeometry x="40" y="50" width="120" height="60" as="geometry" />
        </mxCell>
        <mxCell id="it-wz2Nslt1yuYSjGLY3-43" value="&lt;b&gt;&lt;font style=&quot;font-size: 16px;&quot;&gt;Хранилище&lt;/font&gt;&lt;/b&gt;" style="text;html=1;strokeColor=none;fillColor=none;align=center;verticalAlign=middle;whiteSpace=wrap;rounded=0;fontFamily=Tahoma;" parent="it-wz2Nslt1yuYSjGLY3-36" vertex="1">
          <mxGeometry width="200" height="30" as="geometry" />
        </mxCell>
        <mxCell id="it-wz2Nslt1yuYSjGLY3-46" style="edgeStyle=orthogonalEdgeStyle;rounded=0;orthogonalLoop=1;jettySize=auto;html=1;entryX=0;entryY=0.5;entryDx=0;entryDy=0;" parent="1" source="it-wz2Nslt1yuYSjGLY3-22" target="it-wz2Nslt1yuYSjGLY3-37" edge="1">
          <mxGeometry relative="1" as="geometry" />
        </mxCell>
      </root>
    </mxGraphModel>
  </diagram>
</mxfile>
